<svg width="551" height="250" viewBox="0 0 551 250" fill="none" xmlns="http://www.w3.org/2000/svg">
<path fill-rule="evenodd" clip-rule="evenodd" d="M497.747 148C497.747 135.692 495.247 125.051 490.247 116.077C485.247 107.103 478.132 100.179 468.901 95.3077C459.67 90.4359 448.773 88 436.209 88C435.467 88 434.73 88.0083 434 88.025V115.735C434.661 115.706 435.333 115.692 436.016 115.692C445.632 115.692 453.003 118.577 458.132 124.346C463.26 129.987 465.824 137.808 465.824 147.808C465.824 147.872 465.824 147.936 465.824 148L497.747 148Z" fill="#FFAFCC"/>
<path d="M433.747 202C422.859 202 413.359 199.889 405.247 195.667C397.247 191.333 391.025 185.278 386.581 177.5C382.136 169.722 379.914 160.5 379.914 149.833C379.914 139.278 382.081 130.111 386.414 122.333C390.859 114.556 397.136 108.556 405.247 104.333C413.359 100.111 422.914 98 433.914 98C444.803 98 454.247 100.111 462.247 104.333C470.247 108.556 476.414 114.556 480.747 122.333C485.081 130.111 487.247 139.333 487.247 150C487.247 160.556 485.081 169.778 480.747 177.667C476.414 185.444 470.192 191.444 462.081 195.667C454.081 199.889 444.636 202 433.747 202ZM433.747 178C442.081 178 448.47 175.5 452.914 170.5C457.359 165.389 459.581 158.5 459.581 149.833C459.581 141.167 457.359 134.389 452.914 129.5C448.47 124.5 442.081 122 433.747 122C425.303 122 418.803 124.5 414.247 129.5C409.803 134.389 407.581 141.167 407.581 149.833C407.581 158.5 409.803 165.389 414.247 170.5C418.803 175.5 425.303 178 433.747 178Z" fill="black"/>
<path d="M262.503 200V127.333H248.836V100H276.836V116.333H283.836C287.725 110.556 292.614 106.111 298.503 103C304.391 99.7778 311.725 98.1667 320.503 98.1667C334.391 98.1667 345.114 102 352.669 109.667C360.336 117.222 364.169 127.389 364.169 140.167V200H336.503V145.333C336.503 138 334.503 132.444 330.503 128.667C326.614 124.778 320.891 122.833 313.336 122.833C305.78 122.833 300.003 124.778 296.003 128.667C292.114 132.444 290.169 138 290.169 145.333V200H262.503Z" fill="black"/>
<path d="M172.63 201.833C160.852 201.833 151.63 199 144.964 193.333C138.297 187.556 134.964 180 134.964 170.667C134.964 160.778 138.408 153.167 145.297 147.833C152.186 142.5 162.075 139.833 174.964 139.833H203.63V136C203.63 125.222 197.186 119.833 184.297 119.833C173.075 119.833 166.297 123.722 163.964 131.5H136.464C138.686 120.5 143.852 112.167 151.964 106.5C160.075 100.833 170.852 98 184.297 98C199.186 98 210.519 101.333 218.297 108C226.186 114.667 230.13 124.389 230.13 137.167V172.667H243.13V200H215.13V183.667H208.13C204.686 189.444 200.075 193.944 194.297 197.167C188.519 200.278 181.297 201.833 172.63 201.833ZM176.797 180.833C182.019 180.833 186.63 179.889 190.63 178C194.63 176.111 197.797 173.611 200.13 170.5C202.464 167.278 203.63 163.667 203.63 159.667V158.167H176.297C166.297 158.167 161.297 161.889 161.297 169.333C161.297 173 162.686 175.833 165.464 177.833C168.241 179.833 172.019 180.833 176.797 180.833Z" fill="black"/>
<path d="M67.5 202C49.3889 202 34.9444 198.056 24.1667 190.167C13.3889 182.167 7.5 171.111 6.5 157H35.5C36.5 164.333 39.7778 169.889 45.3333 173.667C51 177.333 58.7778 179.167 68.6667 179.167C77.4444 179.167 84.0556 177.778 88.5 175C92.9445 172.111 95.1667 167.889 95.1667 162.333C95.1667 158 93.7222 154.556 90.8333 152C88.0556 149.444 83.5 147.5 77.1667 146.167L49.3333 140.5C36.7778 137.833 27.3889 133.444 21.1667 127.333C14.9444 121.111 11.8333 113.056 11.8333 103.167C11.8333 90.6111 16.5556 80.7778 26 73.6667C35.5556 66.5556 48.5 63 64.8333 63C81.3889 63 94.7222 66.7222 104.833 74.1667C114.944 81.6111 120.611 92 121.833 105.333H92.8333C89.6111 91.7778 79.7778 85 63.3333 85C55.8889 85 50.0556 86.3333 45.8333 89C41.6111 91.6667 39.5 95.5 39.5 100.5C39.5 108.167 45 113.111 56 115.333L85 121.333C98.1111 124 107.667 128.5 113.667 134.833C119.778 141.056 122.833 149.5 122.833 160.167C122.833 173.389 118 183.667 108.333 191C98.7778 198.333 85.1667 202 67.5 202Z" fill="black"/>
</svg>
