<svg width="353" height="110" viewBox="0 0 353 110" fill="none" xmlns="http://www.w3.org/2000/svg">
<path d="M313.148 109.704C305.714 109.704 299.033 108.197 293.106 105.183C287.178 102.169 282.507 97.7993 279.091 92.073C275.676 86.3466 273.968 79.465 273.968 71.4281V69.017C273.968 60.9801 275.676 54.0985 279.091 48.3722C282.507 42.6459 287.178 38.2758 293.106 35.262C299.033 32.2481 305.714 30.7412 313.148 30.7412C320.582 30.7412 327.263 32.2481 333.19 35.262C339.117 38.2758 343.789 42.6459 347.204 48.3722C350.62 54.0985 352.328 60.9801 352.328 69.017V71.4281C352.328 79.465 350.62 86.3466 347.204 92.073C343.789 97.7993 339.117 102.169 333.19 105.183C327.263 108.197 320.582 109.704 313.148 109.704ZM313.148 92.8264C318.975 92.8264 323.797 90.9679 327.614 87.2508C331.432 83.4333 333.341 78.0083 333.341 70.976V69.4691C333.341 62.4368 331.432 57.0621 327.614 53.345C323.897 49.5275 319.075 47.6187 313.148 47.6187C307.321 47.6187 302.499 49.5275 298.681 53.345C294.864 57.0621 292.955 62.4368 292.955 69.4691V70.976C292.955 78.0083 294.864 83.4333 298.681 87.2508C302.499 90.9679 307.321 92.8264 313.148 92.8264Z" fill="black"/>
<path d="M184.726 107.594V32.8509H203.412V42.6459H206.125C207.33 40.0339 209.59 37.5726 212.906 35.262C216.221 32.8509 221.244 31.6454 227.975 31.6454C233.802 31.6454 238.875 33.0016 243.195 35.714C247.615 38.326 251.031 41.9929 253.442 46.7146C255.853 51.3358 257.059 56.7607 257.059 62.9894V107.594H238.071V64.4963C238.071 58.8704 236.665 54.651 233.852 51.8381C231.139 49.0252 227.221 47.6187 222.098 47.6187C216.271 47.6187 211.75 49.5777 208.536 53.4957C205.321 57.3133 203.713 62.688 203.713 69.6198V107.594H184.726Z" fill="black"/>
<path d="M120.814 109.704C115.489 109.704 110.717 108.8 106.498 106.991C102.279 105.083 98.9132 102.37 96.4016 98.8541C93.9906 95.2375 92.785 90.8674 92.785 85.7439C92.785 80.6203 93.9906 76.3507 96.4016 72.935C98.9132 69.4189 102.329 66.8069 106.649 65.099C111.069 63.2907 116.092 62.3866 121.718 62.3866H142.212V58.1672C142.212 54.651 141.107 51.7879 138.897 49.5777C136.687 47.2671 133.171 46.1118 128.348 46.1118C123.627 46.1118 120.111 47.2169 117.8 49.427C115.489 51.5367 113.982 54.2994 113.279 57.7151L95.7989 51.8381C97.0044 48.0206 98.9132 44.5546 101.525 41.4403C104.238 38.2256 107.804 35.6638 112.224 33.755C116.745 31.7458 122.22 30.7412 128.65 30.7412C138.495 30.7412 146.281 33.2025 152.007 38.1251C157.733 43.0477 160.597 50.1805 160.597 59.5234V87.4015C160.597 90.4153 162.003 91.9223 164.816 91.9223H170.844V107.594H158.185C154.468 107.594 151.404 106.69 148.993 104.882C146.582 103.073 145.377 100.662 145.377 97.6486V97.4979H142.513C142.112 98.7034 141.207 100.311 139.801 102.32C138.395 104.229 136.184 105.937 133.171 107.444C130.157 108.95 126.038 109.704 120.814 109.704ZM124.129 94.3333C129.453 94.3333 133.773 92.8766 137.089 89.9633C140.504 86.9494 142.212 82.9812 142.212 78.0586V76.5516H123.074C119.558 76.5516 116.795 77.3051 114.786 78.812C112.777 80.3189 111.772 82.4286 111.772 85.1411C111.772 87.8536 112.827 90.0637 114.937 91.7716C117.046 93.4794 120.111 94.3333 124.129 94.3333Z" fill="black"/>
<path d="M42.236 109.704C34.0986 109.704 26.9156 108.247 20.687 105.334C14.4584 102.421 9.58601 98.2514 6.06985 92.8265C2.5537 87.4015 0.795624 80.8715 0.795624 73.2365V69.0171H20.3856V73.2365C20.3856 79.5655 22.3446 84.3375 26.2626 87.5522C30.1806 90.6665 35.5051 92.2237 42.236 92.2237C49.0674 92.2237 54.1407 90.8675 57.4559 88.155C60.8716 85.4425 62.5795 81.9766 62.5795 77.7572C62.5795 74.8438 61.7256 72.483 60.0177 70.6747C58.4103 68.8664 55.9992 67.4097 52.7845 66.3046C49.6702 65.0991 45.8526 63.994 41.3319 62.9894L37.8659 62.2359C30.6327 60.6285 24.4041 58.6193 19.1801 56.2082C14.0565 53.6967 10.0883 50.4317 7.27539 46.4132C4.56293 42.3948 3.2067 37.1708 3.2067 30.7412C3.2067 24.3117 4.71362 18.8365 7.72747 14.3158C10.8418 9.69454 15.1616 6.17839 20.687 3.76731C26.3129 1.25577 32.8931 0 40.4277 0C47.9623 0 54.643 1.306 60.4698 3.918C66.397 6.42954 71.0182 10.2471 74.3335 15.3706C77.7492 20.3937 79.457 26.7228 79.457 34.3579V38.8786H59.867V34.3579C59.867 30.3394 59.0633 27.1246 57.4559 24.7135C55.949 22.202 53.7389 20.3937 50.8255 19.2886C47.9121 18.0831 44.4462 17.4803 40.4277 17.4803C34.4 17.4803 29.9295 18.6356 27.0161 20.9462C24.2032 23.1564 22.7967 26.2205 22.7967 30.1385C22.7967 32.7505 23.4497 34.9606 24.7557 36.7689C26.1622 38.5772 28.2216 40.0842 30.9341 41.2897C33.6465 42.4952 37.1125 43.5501 41.3319 44.4542L44.7978 45.2077C52.3324 46.8151 58.8624 48.8745 64.3878 51.3861C70.0136 53.8976 74.3837 57.2128 77.498 61.3318C80.6123 65.4507 82.1695 70.7249 82.1695 77.1545C82.1695 83.584 80.5118 89.2601 77.1966 94.1827C73.9818 99.0048 69.3606 102.822 63.3329 105.635C57.4057 108.348 50.3734 109.704 42.236 109.704Z" fill="black"/>
</svg>
